<svg width="22" height="24" viewBox="0 0 22 24" fill="none" xmlns="http://www.w3.org/2000/svg"><path d="M16.0244 7.91774L13.4801 10.6447L3.16459 0.187162C6.21506 2.0179 11.0875 4.95113 11.0875 4.95113L16.0244 7.91774ZM21.6008 11.2727C21.2282 11.0666 18.6192 9.48973 17.2574 8.66061L14.4692 11.6465L17.5887 14.8096C18.9737 13.9756 21.1591 12.6626 21.5641 12.4181C22.1667 12.0538 22.1116 11.5603 21.6008 11.2727ZM13.5076 12.6768L3.72583 23.1488C6.83156 21.2797 11.0875 18.7205 11.0875 18.7205L16.3464 15.5574L13.5076 12.6768ZM1.20276 0.210599C0.753662 -0.244648 0 0.0868497 0 0.739721V23.2604C0 23.9228 0.772922 24.25 1.21644 23.7751L12.5176 11.6765L1.20276 0.210599Z" fill="currentColor"/></svg>